<?xml version="1.0" standalone="no"?>
<!DOCTYPE svg PUBLIC "-//W3C//DTD SVG 20010904//EN"
 "http://www.w3.org/TR/2001/REC-SVG-20010904/DTD/svg10.dtd">
<svg version="1.0" xmlns="http://www.w3.org/2000/svg"
 width="447.000000pt" height="642.000000pt" viewBox="0 0 447.000000 642.000000"
 preserveAspectRatio="xMidYMid meet">

<g transform="translate(0.000000,642.000000) scale(0.100000,-0.100000)"
fill="white" stroke="none">
<path d="M3129 5995 c-132 -26 -206 -54 -233 -86 -44 -52 -37 -124 50 -557 42
-207 91 -460 109 -562 18 -102 43 -211 55 -242 38 -97 112 -168 177 -168 38 0
306 49 368 67 88 26 145 85 145 151 0 27 -127 482 -151 544 -7 17 -25 32 -52
43 -23 9 -49 22 -57 30 -8 7 -32 15 -52 19 -21 4 -38 11 -38 16 0 5 29 33 65
61 36 29 68 62 71 73 16 49 -18 261 -70 437 -29 97 -82 159 -153 178 -50 14
-152 12 -234 -4z m192 -278 c55 -36 78 -94 78 -196 0 -100 -9 -119 -77 -162
-55 -35 -76 -36 -97 -6 -38 53 -83 275 -70 343 6 36 17 41 86 43 33 1 56 -6
80 -22z m151 -713 c27 -8 88 -194 88 -271 0 -63 -16 -89 -71 -112 -89 -39 -86
-41 -130 94 -42 131 -46 168 -25 220 8 18 12 43 9 54 -4 16 1 20 29 23 32 4
64 1 100 -8z"/>
<path d="M2570 5852 c-94 -14 -386 -85 -418 -101 -49 -25 -88 -70 -103 -120
-17 -57 27 -297 163 -903 l112 -498 44 -21 c72 -35 167 -12 194 47 14 30 -2
142 -63 448 l-39 199 22 25 c32 33 81 56 166 77 141 34 182 88 182 241 0 100
-51 362 -91 471 -36 95 -99 145 -169 135z m59 -337 c41 -106 48 -152 28 -192
-24 -45 -79 -89 -136 -108 -49 -16 -52 -16 -80 4 -37 27 -97 108 -106 144 -21
80 52 177 161 215 96 33 95 34 133 -63z"/>
</g>
</svg>
